#!OML:ASF E:\Style4\Style4.ASF
:FULLY-SPECIFIED
:DEGREES
1801
root 0.54454 17.3555 -0.677615 0.240259 -25.0442 4.26946
lowerback 11.602 -0.848257 -3.44418
upperback 6.61298 -1.52324 0.455411
thorax 0.513508 -0.895943 2.57353
lowerneck 1.44199 -1.63861 -3.19366
upperneck 7.93679 -2.11953 -1.19588
head 2.26606 -1.18542 0.128895
rclavicle -1.39149e-014 1.47101e-014
rhumerus 60.1721 -19.147 -16.5574
rradius 55.0114
rwrist -22.589
rhand 4.32597 9.30309
rfingers 7.12502
rthumb 29.7269 -18.3333
lclavicle -1.39149e-014 1.47101e-014
lhumerus 63.8858 13.7217 19.6341
lradius 68.1578
lwrist 19.9004
lhand 8.48034 24.1884
lfingers 7.12502
lthumb 33.6836 51.0418
rfemur -26.3888 10.1299 13.2
rtibia 44.2502
rfoot -18.8611 -8.47486
rtoes -19.5122
lfemur -16.9263 16.4601 -24.1761
ltibia 41.4259
lfoot -27.4325 15.7187
ltoes -13.2449
1802
root 0.528191 17.3667 -0.683395 0.35551 -24.7075 4.22158
lowerback 11.5064 -0.8479 -3.35265
upperback 6.58332 -1.50923 0.454874
thorax 0.529977 -0.885507 2.51811
lowerneck 1.50955 -1.67679 -3.27794
upperneck 7.91061 -2.18094 -1.06056
head 2.24921 -1.21422 0.185525
rclavicle 3.02153e-014 6.75868e-015
rhumerus 60.3191 -19.225 -16.5845
rradius 54.7393
rwrist -22.6214
rhand 4.34511 9.29176
rfingers 7.12502
rthumb 29.7451 -18.3414
lclavicle 3.02153e-014 6.75868e-015
lhumerus 64.0077 13.7762 19.7035
lradius 67.988
lwrist 19.8953
lhand 8.5674 24.1324
lfingers 7.12502
lthumb 33.7663 50.9678
rfemur -26.289 9.88653 13.2939
rtibia 44.0365
rfoot -18.7903 -8.56518
rtoes -19.7235
lfemur -16.9569 16.2017 -24.0932
ltibia 41.2277
lfoot -27.2425 15.6189
ltoes -12.9594
1803
root 0.511199 17.3804 -0.689388 0.406616 -24.3836 4.21336
lowerback 11.4792 -0.842952 -3.35171
upperback 6.54917 -1.50041 0.47095
thorax 0.508747 -0.879796 2.53324
lowerneck 1.61156 -1.68747 -3.34964
upperneck 7.86666 -2.20351 -0.992259
head 2.21892 -1.22474 0.219902
rclavicle 3.20043e-014 -8.74653e-015
rhumerus 60.5795 -19.2581 -16.7823
rradius 54.4249
rwrist -22.4654
rhand 4.45044 9.29709
rfingers 7.12502
rthumb 29.8457 -18.318
lclavicle 3.20043e-014 -8.74653e-015
lhumerus 64.0212 13.8068 19.7514
lradius 67.8277
lwrist 19.8554
lhand 8.48576 24.0843
lfingers 7.12502
lthumb 33.6888 50.9366
rfemur -26.1304 9.67152 13.3606
rtibia 43.8149
rfoot -18.7521 -8.63702
rtoes -19.4091
lfemur -16.9164 15.9442 -24.0352
ltibia 41.0056
lfoot -27.0182 15.6214
ltoes -13.0517
1804
root 0.493515 17.3941 -0.692653 0.404709 -24.0921 4.27299
lowerback 11.4675 -0.827995 -3.43638
upperback 6.50876 -1.48719 0.492045
thorax 0.475256 -0.873976 2.60178
lowerneck 1.66499 -1.69737 -3.43514
upperneck 7.92207 -2.21861 -0.978933
head 2.22942 -1.23506 0.238442
rclavicle 4.19436e-014 -1.55052e-014
rhumerus 60.8106 -19.2449 -16.9166
rradius 54.1839
rwrist -22.3344
rhand 4.37324 9.26204
rfingers 7.12502
rthumb 29.772 -18.3663
lclavicle 4.19436e-014 -1.55052e-014
lhumerus 63.9649 13.8336 19.8298
lradius 67.6382
lwrist 19.7207
lhand 8.39798 24.0004
lfingers 7.12502
lthumb 33.6053 50.8709
rfemur -25.9393 9.45826 13.363
rtibia 43.5865
rfoot -18.6713 -8.73336
rtoes -19.4984
lfemur -16.8158 15.7195 -24.0409
ltibia 40.7588
lfoot -26.8351 15.6136
ltoes -13.2071
1805
root 0.476341 17.4067 -0.698055 0.408245 -23.7843 4.29764
lowerback 11.4678 -0.824168 -3.47789
upperback 6.4896 -1.48524 0.483857
thorax 0.455998 -0.872793 2.61673
lowerneck 1.6887 -1.7026 -3.37516
upperneck 7.96624 -2.22535 -0.989739
head 2.23874 -1.23748 0.224788
rclavicle 8.70677e-014 -4.13472e-014
rhumerus 60.9404 -19.2616 -17.0091
rradius 54.0379
rwrist -22.3063
rhand 4.27105 9.26418
rfingers 7.12502
rthumb 29.6744 -18.3816
lclavicle 8.70677e-014 -4.13472e-014
lhumerus 63.8313 13.9755 19.7632
lradius 67.6043
lwrist 19.7665
lhand 8.42395 23.9959
lfingers 7.12502
lthumb 33.63 50.8611
rfemur -25.7339 9.22503 13.3975
rtibia 43.3452
rfoot -18.5752 -8.76732
rtoes -19.147
lfemur -16.7077 15.5089 -24.0032
ltibia 40.5091
lfoot -26.6604 15.529
ltoes -13.229
1806
root 0.459342 17.4196 -0.705224 0.465325 -23.4216 4.28557
lowerback 11.3995 -0.838665 -3.45572
upperback 6.5034 -1.49868 0.467279
thorax 0.507114 -0.879323 2.58652
lowerneck 1.75115 -1.7078 -3.34763
upperneck 7.82481 -2.2416 -0.898688
head 2.18216 -1.23996 0.249892
rclavicle -2.28602e-014 -1.74931e-014
rhumerus 61.1018 -19.3726 -17.1322
rradius 53.8489
rwrist -22.2503
rhand 4.20955 9.2757
rfingers 7.12502
rthumb 29.6157 -18.3805
lclavicle -2.28602e-014 -1.74931e-014
lhumerus 63.7486 14.1945 19.707
lradius 67.5948
lwrist 19.7875
lhand 8.43204 24.1265
lfingers 7.12502
lthumb 33.6377 50.99
rfemur -25.5544 8.93869 13.461
rtibia 43.0892
rfoot -18.5632 -8.7613
rtoes -18.6199
lfemur -16.6521 15.2805 -23.9277
ltibia 40.2725
lfoot -26.4932 15.2456
ltoes -12.4616
1807
root 0.442337 17.4327 -0.712766 0.521213 -23.0944 4.20378
lowerback 11.3446 -0.797751 -3.28304
upperback 6.54781 -1.42561 0.425115
thorax 0.571485 -0.838891 2.43606
lowerneck 1.76814 -1.73533 -3.27083
upperneck 7.67685 -2.28705 -0.777117
head 2.13173 -1.25488 0.275488
rclavicle 3.3197e-014 -1.63003e-014
rhumerus 61.0645 -19.5826 -17.2283
rradius 53.744
rwrist -22.1889
rhand 4.27675 9.23598
rfingers 7.12502
rthumb 29.6799 -18.4088
lclavicle 3.3197e-014 -1.63003e-014
lhumerus 63.8419 14.3332 19.7501
lradius 67.564
lwrist 19.6871
lhand 8.3485 24.1349
lfingers 7.12502
lthumb 33.5583 51.0156
rfemur -25.347 8.70891 13.6127
rtibia 42.82
rfoot -18.494 -8.8466
rtoes -18.469
lfemur -16.5795 15.0795 -23.775
ltibia 40.0481
lfoot -26.2986 15.0284
ltoes -11.7214
1808
root 0.423783 17.4451 -0.72088 0.634425 -22.7823 4.09064
lowerback 11.2631 -0.724037 -3.05604
upperback 6.57583 -1.30359 0.366221
thorax 0.62854 -0.771474 2.23256
lowerneck 1.71114 -1.78896 -3.15941
upperneck 7.63652 -2.36374 -0.643496
head 2.12986 -1.28592 0.297402
rclavicle -4.35338e-014 3.97569e-016
rhumerus 60.9771 -19.7802 -17.3037
rradius 53.578
rwrist -22.0931
rhand 4.16426 9.12407
rfingers 7.12502
rthumb 29.5725 -18.5398
lclavicle -4.35338e-014 3.97569e-016
lhumerus 64.019 14.4321 19.8091
lradius 67.5461
lwrist 19.5488
lhand 8.29722 24.0971
lfingers 7.12502
lthumb 33.5096 50.9884
rfemur -25.1899 8.53234 13.788
rtibia 42.5412
rfoot -18.4163 -8.95119
rtoes -18.1492
lfemur -16.5652 14.8476 -23.6066
ltibia 39.827
lfoot -26.0751 14.9595
ltoes -11.6263
1809
root 0.405211 17.4596 -0.727504 0.66739 -22.4663 4.11332
lowerback 11.2539 -0.657 -3.00407
upperback 6.56517 -1.20927 0.309122
thorax 0.613728 -0.720882 2.13442
lowerneck 1.71944 -1.85254 -3.12462
upperneck 7.6165 -2.45634 -0.506819
head 2.12472 -1.32727 0.333402
rclavicle -2.98177e-015 -1.90833e-014
rhumerus 61.0709 -19.862 -17.4432
rradius 53.2865
rwrist -21.9635
rhand 3.97299 8.89441
rfingers 7.12502
rthumb 29.3899 -18.8016
lclavicle -2.98177e-015 -1.90833e-014
lhumerus 64.0867 14.5326 19.8261
lradius 67.5357
lwrist 19.5642
lhand 8.2292 24.0783
lfingers 7.12502
lthumb 33.4449 50.9835
rfemur -25.0132 8.29589 13.83
rtibia 42.2679
rfoot -18.3322 -9.00681
rtoes -18.405
lfemur -16.5029 14.6372 -23.5671
ltibia 39.5896
lfoot -25.8505 14.8444
ltoes -11.4109
1810
root 0.387285 17.4752 -0.733913 0.690432 -22.1519 4.13722
lowerback 11.2452 -0.625824 -3.02838
upperback 6.5551 -1.16918 0.293435
thorax 0.605782 -0.700455 2.12768
lowerneck 1.73302 -1.88993 -3.1414
upperneck 7.61664 -2.51019 -0.437969
head 2.12458 -1.35269 0.357258
rclavicle 7.5737e-014 -2.54444e-014
rhumerus 61.3134 -19.8923 -17.6629
rradius 53.0124
rwrist -21.7902
rhand 3.93634 8.76478
rfingers 7.12502
rthumb 29.3549 -18.9374
lclavicle 7.5737e-014 -2.54444e-014
lhumerus 64.0597 14.7065 19.8282
lradius 67.4339
lwrist 19.5166
lhand 8.12999 24.0425
lfingers 7.12502
lthumb 33.3506 50.9681
rfemur -24.8215 8.05599 13.8731
rtibia 42.0005
rfoot -18.2091 -9.12781
rtoes -18.8847
lfemur -16.4309 14.4787 -23.5286
ltibia 39.3518
lfoot -25.5322 14.828
ltoes -11.7717
1811
root 0.369451 17.4893 -0.743311 0.769764 -21.7761 4.16115
lowerback 11.2253 -0.630681 -3.08628
upperback 6.51206 -1.17907 0.300216
thorax 0.573776 -0.705276 2.16844
lowerneck 1.72339 -1.88764 -3.13293
upperneck 7.64286 -2.50721 -0.421038
head 2.13498 -1.35079 0.360999
rclavicle -5.34731e-014 1.51076e-014
rhumerus 61.5717 -19.9106 -17.9088
rradius 52.7798
rwrist -21.5712
rhand 4.08523 8.86585
rfingers 7.12502
rthumb 29.4971 -18.8113
lclavicle -5.34731e-014 1.51076e-014
lhumerus 63.8865 14.9024 19.7828
lradius 67.3934
lwrist 19.4969
lhand 8.03689 24.1018
lfingers 7.12502
lthumb 33.2621 51.0463
rfemur -24.6923 7.7795 13.9136
rtibia 41.7468
rfoot -18.1067 -9.29516
rtoes -18.7914
lfemur -16.439 14.2749 -23.5102
ltibia 39.1155
lfoot -25.1444 14.903
ltoes -12.4875
